<svg width="24" height="25" viewBox="0 0 24 25" fill="none" xmlns="http://www.w3.org/2000/svg">
<path d="M7.79131 19.2141L8.74915 17.7241C8.14149 17.5662 7.5517 17.1971 7.33277 17.0323L7.62635 16.6566C8.34015 17.0124 10.2306 17.7241 12.0819 17.7241C13.9332 17.7241 15.7112 17.0124 16.3689 16.6566L16.7446 17.0323C16.5374 17.2329 15.7027 17.5771 15.3113 17.7241C15.5628 18.128 16.0981 18.9916 16.2265 19.2141C17.9189 19.0215 19.9222 17.7241 20.613 17.0323C20.9756 11.7222 18.7177 8.14571 18.0969 7.24109C17.0043 6.46063 15.2057 6.14726 14.443 6.08813C14.3424 6.29507 14.1201 6.76926 14.035 7.0105C12.6018 6.72669 10.7535 6.89224 10.0085 7.0105C9.86071 6.75034 9.55089 6.20166 9.49413 6.08813C8.23475 6.2123 6.53193 6.88633 5.9998 7.24109C3.4101 10.7532 3.19724 15.2231 3.4101 17.0323C4.57369 18.0966 6.81574 18.9302 7.79131 19.2141Z" stroke="currentColor" stroke-width="1.5"/>
<path d="M10.7236 13.2537C10.7236 14.2095 9.99142 14.9844 9.08826 14.9844C8.1851 14.9844 7.45295 14.2095 7.45295 13.2537C7.45295 12.2978 8.1851 11.523 9.08826 11.523C9.99142 11.523 10.7236 12.2978 10.7236 13.2537Z" stroke="currentColor" stroke-width="1.5"/>
<path d="M16.529 13.2537C16.529 14.2095 15.7968 14.9844 14.8937 14.9844C13.9905 14.9844 13.2584 14.2095 13.2584 13.2537C13.2584 12.2978 13.9905 11.523 14.8937 11.523C15.7968 11.523 16.529 12.2978 16.529 13.2537Z" stroke="currentColor" stroke-width="1.5"/>
</svg>