<svg width="25" height="24" viewBox="0 0 25 24" fill="none" xmlns="http://www.w3.org/2000/svg">
<path d="M3.32422 9C4.42879 9 5.32422 8.10457 5.32422 7C5.32422 5.89543 4.42879 5 3.32422 5C2.21965 5 1.32422 5.89543 1.32422 7C1.32422 8.10457 2.21965 9 3.32422 9Z" stroke="black" stroke-width="1.5" stroke-miterlimit="10" stroke-linecap="round" stroke-linejoin="round"/>
<path d="M21.3242 9C22.4288 9 23.3242 8.10457 23.3242 7C23.3242 5.89543 22.4288 5 21.3242 5C20.2196 5 19.3242 5.89543 19.3242 7C19.3242 8.10457 20.2196 9 21.3242 9Z" stroke="black" stroke-width="1.5" stroke-miterlimit="10" stroke-linecap="round" stroke-linejoin="round"/>
<path d="M19.3242 7H15.3242" stroke="black" stroke-width="1.5" stroke-miterlimit="10" stroke-linecap="round" stroke-linejoin="round"/>
<path d="M9.32422 7H5.32422" stroke="black" stroke-width="1.5" stroke-miterlimit="10" stroke-linecap="round" stroke-linejoin="round"/>
<path d="M7.82422 16.5V18.5C7.82422 19.11 7.45422 19.64 6.93422 19.86C6.74422 19.95 6.54422 20 6.32422 20H4.32422C3.49422 20 2.82422 19.33 2.82422 18.5V16.5C2.82422 15.67 3.49422 15 4.32422 15H6.32422C7.15422 15 7.82422 15.67 7.82422 16.5Z" stroke="black" stroke-width="1.5" stroke-miterlimit="10" stroke-linecap="round" stroke-linejoin="round"/>
<path d="M21.8242 16.5V18.5C21.8242 19.33 21.1542 20 20.3242 20H18.3242C18.1042 20 17.9042 19.95 17.7142 19.86C17.1942 19.64 16.8242 19.11 16.8242 18.5V16.5C16.8242 15.67 17.4942 15 18.3242 15H20.3242C21.1542 15 21.8242 15.67 21.8242 16.5Z" stroke="black" stroke-width="1.5" stroke-miterlimit="10" stroke-linecap="round" stroke-linejoin="round"/>
<path d="M15.3242 5.5V8.5C15.3242 9.32 14.6442 10 13.8242 10H10.8242C10.0042 10 9.32422 9.32 9.32422 8.5V5.5C9.32422 4.68 10.0042 4 10.8242 4H13.8242C14.6442 4 15.3242 4.68 15.3242 5.5Z" stroke="black" stroke-width="1.5" stroke-miterlimit="10" stroke-linecap="round" stroke-linejoin="round"/>
<path d="M15.3242 7.72998C17.6942 8.92998 19.3242 11.51 19.3242 14.5C19.3242 14.67 19.3142 14.83 19.2942 15" stroke="black" stroke-width="1.5" stroke-miterlimit="10" stroke-linecap="round" stroke-linejoin="round"/>
<path d="M5.35422 15C5.33422 14.83 5.32422 14.67 5.32422 14.5C5.32422 11.51 6.95422 8.92998 9.32422 7.72998" stroke="black" stroke-width="1.5" stroke-miterlimit="10" stroke-linecap="round" stroke-linejoin="round"/>
</svg>
